name Walk1.mot
datacolumns 19
datarows 10
range 0.97100000 0.98000000
endheader

                time	   L_ground_force_vx	   L_ground_force_vy	   L_ground_force_vz	   L_ground_force_px	   L_ground_force_py	   L_ground_force_pz	   R_ground_force_vx	   R_ground_force_vy	   R_ground_force_vz	   R_ground_force_px	   R_ground_force_py	   R_ground_force_pz	   L_ground_torque_x	   L_ground_torque_y	   L_ground_torque_z	   R_ground_torque_x	   R_ground_torque_y	   R_ground_torque_z	
          0.97100000	         -7.29945421	        107.99143410	         -6.17012095	         -0.00628510	          0.00000000	         -0.01756944	          0.00000001	         -0.00000008	         -0.00000000	         -0.00000000	          0.00000000	          0.00000000	          0.00000000	          0.18989943	          0.00000000	          0.00000000	         -0.00000000	          0.00000000	
          0.97200000	         -8.21160973	        116.96980104	         -6.54544019	         -0.01597688	          0.00000000	         -0.01985173	          0.00000001	         -0.00000008	         -0.00000000	         -0.00000000	          0.00000000	          0.00000000	          0.00000000	          0.22013897	          0.00000000	          0.00000000	         -0.00000000	          0.00000000	
          0.97300000	         -9.15846672	        126.16180491	         -6.92462220	         -0.02564277	          0.00000000	         -0.02215582	          0.00000001	         -0.00000007	         -0.00000000	         -0.00000000	          0.00000000	          0.00000000	          0.00000000	          0.25103925	          0.00000000	          0.00000000	         -0.00000000	          0.00000000	
          0.97400000	        -10.13962154	        135.55194612	         -7.30653582	         -0.03525468	          0.00000000	         -0.02447700	          0.00000001	         -0.00000007	         -0.00000000	         -0.00000000	          0.00000000	          0.00000000	          0.00000000	          0.28255279	          0.00000000	          0.00000000	         -0.00000000	          0.00000000	
          0.97500000	        -11.15452997	        145.12276543	         -7.68994212	         -0.04478433	          0.00000000	         -0.02681019	          0.00000001	         -0.00000006	         -0.00000000	         -0.00000000	          0.00000000	          0.00000000	          0.00000000	          0.31462861	          0.00000000	          0.00000000	         -0.00000000	          0.00000000	
          0.97600000	        -12.20250298	        154.85474984	         -8.07348982	         -0.05420382	          0.00000000	         -0.02914974	          0.00000001	         -0.00000005	         -0.00000000	          0.00000000	          0.00000000	          0.00000000	          0.00000000	          0.34721316	          0.00000000	          0.00000000	         -0.00000000	          0.00000000	
          0.97700000	        -13.28270994	        164.72629916	         -8.45571266	         -0.06348669	          0.00000000	         -0.03148935	          0.00000001	         -0.00000004	         -0.00000000	          0.00000000	          0.00000000	          0.00000000	          0.00000000	          0.38025194	          0.00000000	          0.00000000	         -0.00000000	          0.00000000	
          0.97800000	        -14.39418067	        174.71375225	         -8.83502848	         -0.07260866	          0.00000000	         -0.03382227	          0.00000001	         -0.00000004	          0.00000000	          0.00000000	          0.00000000	          0.00000000	          0.00000000	          0.41369012	          0.00000000	          0.00000000	         -0.00000000	          0.00000000	
          0.97900000	        -15.53580432	        184.79148843	         -9.20974035	         -0.08154782	          0.00000000	         -0.03614160	          0.00000001	         -0.00000003	          0.00000000	          0.00000000	          0.00000000	          0.00000000	          0.00000000	          0.44747196	          0.00000000	          0.00000000	         -0.00000000	          0.00000000	
          0.98000000	        -16.70633194	        194.93214658	         -9.57803979	         -0.09028458	          0.00000000	         -0.03844068	          0.00000001	         -0.00000001	          0.00000000	          0.00000000	          0.00000000	          0.00000000	          0.00000000	          0.48154028	          0.00000000	          0.00000000	         -0.00000000	          0.00000000	
